<svg width="32" height="33" viewBox="0 0 32 33" fill="none" xmlns="http://www.w3.org/2000/svg">
<path d="M8 28.3833V25.7166C8 24.3021 8.5619 22.9456 9.5621 21.9454C10.5623 20.9452 11.9188 20.3833 13.3333 20.3833H17.3333M28 20.3833H24.6667C24.1362 20.3833 23.6275 20.594 23.2525 20.9691C22.8774 21.3442 22.6667 21.8529 22.6667 22.3833C22.6667 22.9137 22.8774 23.4224 23.2525 23.7975C23.6275 24.1726 24.1362 24.3833 24.6667 24.3833H26C26.5304 24.3833 27.0391 24.594 27.4142 24.9691C27.7893 25.3442 28 25.8529 28 26.3833C28 26.9137 27.7893 27.4224 27.4142 27.7975C27.0391 28.1726 26.5304 28.3833 26 28.3833H22.6667M25.3333 28.3833V29.7166M25.3333 19.05V20.3833M10.6667 9.71663C10.6667 11.1311 11.2286 12.4877 12.2288 13.4879C13.229 14.4881 14.5855 15.05 16 15.05C17.4145 15.05 18.771 14.4881 19.7712 13.4879C20.7714 12.4877 21.3333 11.1311 21.3333 9.71663C21.3333 8.30215 20.7714 6.94559 19.7712 5.9454C18.771 4.9452 17.4145 4.3833 16 4.3833C14.5855 4.3833 13.229 4.9452 12.2288 5.9454C11.2286 6.94559 10.6667 8.30215 10.6667 9.71663Z" stroke="#1A2E4F" stroke-width="2" stroke-linecap="round" stroke-linejoin="round"/>
</svg>
