<svg width="32" height="33" viewBox="0 0 32 33" fill="none" xmlns="http://www.w3.org/2000/svg">
<path d="M20 28.8833C20 28.8833 20 25.8508 20 24.8833C20 24.049 20.2008 22.2673 19.3333 21.55C21.1849 21.3832 22.644 20.7737 24 19.55C25.356 18.3262 26 16.4666 26 13.55C26 11.55 25.6667 10.2166 24.6667 8.8833C25.0484 7.84225 25.1251 6.21663 24.6667 4.8833C22.5833 4.8833 20.7007 6.31614 20 6.8833C19.4829 6.74985 18.2244 6.21663 16 6.21663C13.7756 6.21663 12.5171 6.74985 12 6.8833C11.2994 6.31614 9.41667 4.8833 7.33333 4.8833C6.875 6.21663 6.95161 7.84225 7.33333 8.8833C6.33333 10.2166 6 11.55 6 13.55C6 16.4666 6.64401 18.3262 8 19.55C9.35599 20.7737 10.8151 21.3832 12.6667 21.55C11.7993 22.2673 12 24.049 12 24.8833C12 25.8508 12 28.8833 12 28.8833" stroke="#1A2E4F" stroke-width="2" stroke-linecap="round" stroke-linejoin="round"/>
<path d="M12 26.2166C10.1253 26.2166 8 25.55 6.66667 25.55C5.95733 25.55 5.33333 25.55 4 24.8833" stroke="#1A2E4F" stroke-width="2" stroke-linecap="round" stroke-linejoin="round"/>
</svg>
