<svg width="32" height="33" viewBox="0 0 32 33" fill="none" xmlns="http://www.w3.org/2000/svg">
<g clip-path="url(#clip0_301_25)">
<path d="M12 4.3833C10.4241 4.38339 8.86355 4.69388 7.40759 5.29705C5.95164 5.90022 4.62875 6.78426 3.51444 7.89869C2.40014 9.01311 1.51625 10.3361 0.913241 11.7921C0.310232 13.2481 -8.75294e-05 14.8087 1.85192e-08 16.3846C8.75664e-05 17.9606 0.310581 19.5211 0.913751 20.977C1.51692 22.433 2.40096 23.7559 3.51539 24.8702C4.62981 25.9845 5.95281 26.8684 7.40883 27.4714C8.86485 28.0744 10.4254 28.3847 12.0013 28.3846C15.1841 28.3845 18.2365 27.1199 20.4869 24.8693C22.7373 22.6186 24.0015 19.5661 24.0013 16.3833C24.0012 13.2005 22.7366 10.1482 20.4859 7.89774C18.2353 5.64731 15.1828 4.38312 12 4.3833ZM15.72 21.9966L10.6667 16.93V9.71663H13.3333V15.8366L17.6133 20.1166L15.72 21.9966Z" fill="#1A2E4F"/>
<path d="M23.9866 5.07666V7.95666C25.5849 8.70995 26.9362 9.90209 27.8828 11.3941C28.8295 12.886 29.3325 14.6164 29.3332 16.3833C29.3332 20.1033 27.1466 23.3167 23.9866 24.81V27.69C28.6399 26.0367 31.9999 21.5967 31.9999 16.3833C31.9999 11.17 28.6399 6.72999 23.9866 5.07666Z" fill="#1A2E4F"/>
</g>
<defs>
<clipPath id="clip0_301_25">
<rect width="32" height="32" fill="white" transform="translate(0 0.383301)"/>
</clipPath>
</defs>
</svg>
