<svg width="32" height="33" viewBox="0 0 32 33" fill="none" xmlns="http://www.w3.org/2000/svg">
<path d="M19 13.3833H26V15.3833H19V13.3833ZM19 8.3833H30V10.3833H19V8.3833ZM19 3.3833H30V5.3833H19V3.3833ZM11 30.3833H7.00002C6.47007 30.3817 5.96228 30.1705 5.58755 29.7958C5.21282 29.421 5.0016 28.9132 5.00002 28.3833V21.3833C4.47007 21.3817 3.96228 21.1705 3.58755 20.7958C3.21282 20.421 3.0016 19.9132 3.00002 19.3833V13.3833C2.99269 12.9873 3.06528 12.5939 3.21345 12.2266C3.36162 11.8594 3.58233 11.5257 3.86238 11.2457C4.14242 10.9656 4.47607 10.7449 4.84335 10.5967C5.21064 10.4486 5.60403 10.376 6.00002 10.3833H12C12.396 10.376 12.7894 10.4486 13.1567 10.5967C13.524 10.7449 13.8576 10.9656 14.1377 11.2457C14.4177 11.5257 14.6384 11.8594 14.7866 12.2266C14.9348 12.5939 15.0073 12.9873 15 13.3833V19.3833C14.9984 19.9132 14.7872 20.421 14.4125 20.7958C14.0378 21.1705 13.53 21.3817 13 21.3833V28.3833C12.9984 28.9132 12.7872 29.421 12.4125 29.7958C12.0378 30.1705 11.53 30.3817 11 30.3833ZM6.00002 12.3833C5.8666 12.3753 5.73301 12.3957 5.60805 12.4431C5.48309 12.4905 5.36961 12.5639 5.2751 12.6584C5.18059 12.7529 5.1072 12.8664 5.05979 12.9913C5.01237 13.1163 4.992 13.2499 5.00002 13.3833V19.3833H7.00002V28.3833H11V19.3833H13V13.3833C13.008 13.2499 12.9877 13.1163 12.9402 12.9913C12.8928 12.8664 12.8194 12.7529 12.7249 12.6584C12.6304 12.5639 12.5169 12.4905 12.392 12.4431C12.267 12.3957 12.1334 12.3753 12 12.3833H6.00002ZM9.00002 9.3833C8.20889 9.3833 7.43553 9.14871 6.77773 8.70918C6.11994 8.26966 5.60725 7.64494 5.3045 6.91404C5.00175 6.18313 4.92253 5.37887 5.07687 4.60294C5.23122 3.82702 5.61218 3.11429 6.17159 2.55488C6.731 1.99547 7.44373 1.6145 8.21966 1.46016C8.99558 1.30582 9.79985 1.38503 10.5308 1.68778C11.2617 1.99053 11.8864 2.50322 12.3259 3.16102C12.7654 3.81882 13 4.59218 13 5.3833C12.9969 6.4432 12.5744 7.45877 11.8249 8.20823C11.0755 8.95769 10.0599 9.38014 9.00002 9.3833ZM9.00002 3.3833C8.60445 3.3833 8.21777 3.5006 7.88888 3.72036C7.55998 3.94013 7.30363 4.25248 7.15226 4.61794C7.00088 4.98339 6.96128 5.38552 7.03845 5.77348C7.11562 6.16145 7.3061 6.51781 7.5858 6.79752C7.86551 7.07722 8.22187 7.2677 8.60984 7.34487C8.9978 7.42204 9.39993 7.38244 9.76538 7.23106C10.1308 7.07969 10.4432 6.82334 10.663 6.49444C10.8827 6.16554 11 5.77887 11 5.3833C10.9984 4.85336 10.7872 4.34557 10.4125 3.97084C10.0378 3.59611 9.52996 3.38489 9.00002 3.3833Z" fill="#1A2E4F"/>
</svg>
