<svg width="32" height="34" viewBox="0 0 32 34" fill="none" xmlns="http://www.w3.org/2000/svg">
<path d="M3.84125 8.64484L15.8412 4.51984C15.9443 4.48427 16.0557 4.48427 16.1587 4.51984L28.1588 8.64484C28.2581 8.67914 28.3445 8.74476 28.4057 8.83242C28.4669 8.92008 28.4999 9.02536 28.5 9.1334V19.4459C28.5 19.5827 28.4473 19.7138 28.3536 19.8105C28.2598 19.9072 28.1326 19.9615 28 19.9615C27.8674 19.9615 27.7402 19.9072 27.6464 19.8105C27.5527 19.7138 27.5 19.5827 27.5 19.4459V9.84883L22.015 11.7347C22.6922 12.6728 23.1544 13.757 23.3666 14.9058C23.5789 16.0546 23.5358 17.2381 23.2405 18.3673C22.9452 19.4964 22.4055 20.5418 21.6619 21.4248C20.9183 22.3078 19.9902 23.0055 18.9475 23.4652C21.555 24.2051 23.8225 25.9312 25.4187 28.4474C25.4849 28.5619 25.5055 28.6983 25.4762 28.828C25.447 28.9578 25.3702 29.0708 25.2619 29.1435C25.1536 29.2162 25.0223 29.2428 24.8954 29.2178C24.7685 29.1928 24.6559 29.1181 24.5813 29.0095C22.6038 25.8809 19.475 24.0865 16 24.0865C12.525 24.0865 9.39625 25.8809 7.41875 29.0082C7.34406 29.1169 7.23147 29.1915 7.10459 29.2165C6.9777 29.2415 6.84636 29.2149 6.73809 29.1422C6.62981 29.0695 6.55301 28.9565 6.52378 28.8267C6.49454 28.697 6.51513 28.5606 6.58125 28.4461C8.17125 25.9299 10.445 24.2038 13.0525 23.4639C12.0098 23.0042 11.0817 22.3066 10.3381 21.4236C9.59451 20.5406 9.05478 19.4952 8.75951 18.366C8.46424 17.2369 8.42111 16.0534 8.63338 14.9045C8.84564 13.7557 9.30777 12.6715 9.985 11.7334L3.84125 9.62066C3.74212 9.58616 3.65598 9.52047 3.59496 9.43282C3.53395 9.34518 3.50113 9.24 3.50113 9.13211C3.50113 9.02422 3.53395 8.91904 3.59496 8.8314C3.65598 8.74375 3.74212 8.67805 3.84125 8.64355V8.64484ZM9.5 16.3521C9.49996 17.4278 9.75092 18.4876 10.2317 19.4421C10.7124 20.3966 11.4089 21.2178 12.2622 21.8364C13.1155 22.4549 14.1006 22.8526 15.1343 22.9958C16.168 23.1391 17.22 23.0237 18.2014 22.6594C19.1827 22.2951 20.0647 21.6927 20.7728 20.9029C21.4808 20.1131 21.9942 19.1592 22.2695 18.1217C22.5448 17.0843 22.574 15.9937 22.3545 14.9422C22.1351 13.8907 21.6735 12.909 21.0087 12.0802L16.1587 13.747C16.0558 13.783 15.9442 13.783 15.8412 13.747L10.9912 12.0802C10.026 13.2811 9.49848 14.7923 9.5 16.3521ZM16 12.7144L26.4187 9.1334L16 5.55238L5.58125 9.1334L16 12.7144Z" fill="#1A2E4F"/>
</svg>
