<svg width="32" height="33" viewBox="0 0 32 33" fill="none" xmlns="http://www.w3.org/2000/svg">
<path d="M16.248 19.7861C15.4253 19.7861 14.9453 20.5688 14.9453 21.6168C14.9453 22.6715 15.44 23.4168 16.256 23.4168C17.0786 23.4168 17.5506 22.6328 17.5506 21.5848C17.5506 20.6168 17.0866 19.7861 16.248 19.7861Z" fill="#1A2E4F"/>
<path d="M18.6666 3.0498H7.99992C7.29267 3.0498 6.6144 3.33076 6.1143 3.83085C5.6142 4.33095 5.33325 5.00923 5.33325 5.71647V27.0498C5.33325 27.757 5.6142 28.4353 6.1143 28.9354C6.6144 29.4355 7.29267 29.7165 7.99992 29.7165H23.9999C24.7072 29.7165 25.3854 29.4355 25.8855 28.9354C26.3856 28.4353 26.6666 27.757 26.6666 27.0498V11.0498L18.6666 3.0498ZM12.2066 23.6551C11.6386 24.1271 10.7759 24.3498 9.72125 24.3498C9.08792 24.3498 8.64125 24.3098 8.33725 24.2698V18.9751C8.88255 18.8966 9.43302 18.8596 9.98392 18.8645C11.0079 18.8645 11.6719 19.0485 12.1906 19.4405C12.7506 19.8565 13.1026 20.5205 13.1026 21.4698C13.1026 22.5031 12.7266 23.2151 12.2066 23.6551ZM16.1933 24.3831C14.5933 24.3831 13.6586 23.1751 13.6586 21.6391C13.6586 20.0245 14.6893 18.8178 16.2813 18.8178C17.9359 18.8178 18.8399 20.0565 18.8399 21.5445C18.8386 23.3111 17.7666 24.3831 16.1933 24.3831ZM22.3999 23.3671C22.7666 23.3671 23.1746 23.2858 23.4159 23.1911L23.5999 24.1418C23.3759 24.2538 22.8719 24.3738 22.2173 24.3738C20.3546 24.3738 19.3946 23.2151 19.3946 21.6791C19.3946 19.8405 20.7053 18.8178 22.3373 18.8178C22.9693 18.8178 23.4479 18.9458 23.6639 19.0578L23.4159 20.0258C23.0913 19.8916 22.7432 19.8237 22.3919 19.8258C21.4239 19.8258 20.6719 20.4098 20.6719 21.6098C20.6719 22.6885 21.3119 23.3671 22.3999 23.3671ZM18.6666 12.3831H17.3333V5.71647L23.9999 12.3831H18.6666Z" fill="#1A2E4F"/>
<path d="M10.1119 19.8008C9.84128 19.8008 9.66528 19.8248 9.56128 19.8488V23.3754C9.66528 23.3994 9.83328 23.3994 9.98395 23.3994C11.0879 23.4074 11.8066 22.8008 11.8066 21.5128C11.8146 20.3928 11.1599 19.8008 10.1119 19.8008Z" fill="#1A2E4F"/>
</svg>
